<svg xmlns="http://www.w3.org/2000/svg" style="display: none;">
  <symbol id="message" width="24" height="24" viewBox="0 0 24 24" fill="white">
    <g clip-path="url(#clip0_1_48)">
      <path d="M21.4286 3H2.57146C1.62469 3 0.857178 3.76752 0.857178 4.71429V19.2857C0.857178 20.2325 1.62469 21 2.57146 21H21.4286C22.3754 21 23.1429 20.2325 23.1429 19.2857V4.71429C23.1429 3.76752 22.3754 3 21.4286 3Z"  stroke-width="2" stroke-linecap="round" stroke-linejoin="round"/>
      <path d="M0.857178 5.14282L10.9029 11.1844C11.2109 11.3652 11.5991 11.4643 12 11.4643C12.4009 11.4643 12.7891 11.3652 13.0972 11.1844L23.1429 5.14282"  stroke-width="2" stroke-linecap="round" stroke-linejoin="round"/>
    </g>
    <defs>
      <clipPath id="clip0_1_48">
        <rect width="24" height="24" fill="none"/>
      </clipPath>
    </defs>
  </symbol>
  <symbol id="report" width="24" height="24" viewBox="0 0 24 24" fill="none">
    <g clip-path="url(#clip0_1_65)">
      <path d="M15.4285 4.28564H5.14275C4.19599 4.28564 3.42847 5.05316 3.42847 5.99993V21.4285C3.42847 22.3753 4.19599 23.1428 5.14275 23.1428H15.4285C16.3752 23.1428 17.1428 22.3753 17.1428 21.4285V5.99993C17.1428 5.05316 16.3752 4.28564 15.4285 4.28564Z"  stroke-width="2" stroke-linecap="round" stroke-linejoin="round"/>
      <path d="M6.85693 8.57153H13.7141"  stroke-width="2" stroke-linecap="round" stroke-linejoin="round"/>
      <path d="M6.85693 12.8572H13.7141"  stroke-width="2" stroke-linecap="round" stroke-linejoin="round"/>
      <path d="M6.85693 17.1428H10.2855"  stroke-width="2" stroke-linecap="round" stroke-linejoin="round"/>
      <path d="M7.71411 0.857178H18.857C19.3116 0.857178 19.7477 1.03779 20.0691 1.35928C20.3906 1.68077 20.5713 2.1168 20.5713 2.57146V18.8572"  stroke-width="2" stroke-linecap="round" stroke-linejoin="round"/>
    </g>
    <defs>
      <clipPath id="clip0_1_65">
        <rect width="24" height="24" fill="white"/>
      </clipPath>
    </defs>
  </symbol>
  <symbol id="setting" width="24" height="24" viewBox="0 0 24 24" fill="none">
    <g clip-path="url(#clip0_1_80)">
      <path d="M8.96575 3.85718L9.70289 1.95432C9.82721 1.63214 10.0459 1.35503 10.3304 1.15926C10.6149 0.963487 10.9519 0.858198 11.2972 0.857178H12.7029C13.0482 0.858198 13.3852 0.963487 13.6697 1.15926C13.9541 1.35503 14.1729 1.63214 14.2972 1.95432L15.0343 3.85718L17.5371 5.29718L19.56 4.98861C19.8968 4.94289 20.2397 4.99833 20.545 5.1479C20.8501 5.29747 21.104 5.5344 21.2743 5.82861L21.96 7.02861C22.1357 7.32749 22.2168 7.67263 22.1923 8.01847C22.1677 8.36431 22.039 8.6946 21.8228 8.96575L20.5714 10.56V13.44L21.8571 15.0343C22.0733 15.3055 22.202 15.6358 22.2265 15.9816C22.2511 16.3274 22.17 16.6726 21.9943 16.9715L21.3085 18.1715C21.1383 18.4656 20.8844 18.7025 20.5793 18.8522C20.274 19.0017 19.9311 19.0572 19.5943 19.0115L17.5714 18.7029L15.0686 20.1429L14.3315 22.0457C14.2071 22.3679 13.9884 22.6451 13.7039 22.8408C13.4195 23.0366 13.0825 23.1419 12.7372 23.1429H11.2972C10.9519 23.1419 10.6149 23.0366 10.3304 22.8408C10.0459 22.6451 9.82721 22.3679 9.70289 22.0457L8.96575 20.1429L6.46289 18.7029L4.44004 19.0115C4.10321 19.0572 3.76039 19.0017 3.45514 18.8522C3.14992 18.7025 2.89603 18.4656 2.72575 18.1715L2.04004 16.9715C1.86432 16.6726 1.78337 16.3274 1.80785 15.9816C1.83233 15.6358 1.96111 15.3055 2.17718 15.0343L3.42861 13.44V10.56L2.14289 8.96575C1.92682 8.6946 1.79805 8.36431 1.77357 8.01847C1.74909 7.67263 1.83004 7.32749 2.00575 7.02861L2.69146 5.82861C2.86174 5.5344 3.11563 5.29747 3.42086 5.1479C3.7261 4.99833 4.06893 4.94289 4.40575 4.98861L6.42861 5.29718L8.96575 3.85718ZM8.57146 12C8.57146 12.6781 8.77255 13.341 9.14928 13.9048C9.52603 14.4687 10.0615 14.9081 10.688 15.1676C11.3145 15.4271 12.0038 15.495 12.6689 15.3627C13.334 15.2304 13.9449 14.9039 14.4244 14.4244C14.9039 13.9449 15.2304 13.334 15.3627 12.6689C15.495 12.0038 15.4271 11.3145 15.1676 10.688C14.9081 10.0615 14.4687 9.52601 13.9048 9.14928C13.341 8.77255 12.6781 8.57146 12 8.57146C11.0907 8.57146 10.2187 8.93268 9.57568 9.57568C8.9327 10.2187 8.57146 11.0907 8.57146 12Z" stroke-width="2" stroke-linecap="round" stroke-linejoin="round"/>
    </g>
    <defs>
      <clipPath id="clip0_1_80">
        <rect width="24" height="24" fill="white"/>
      </clipPath>
    </defs>
  </symbol>

  <symbol id="apple" width="24" height="24" viewBox="0 0 24 24" fill="none">
    <g clip-path="url(#clip0_1_61)">
      <path d="M17.2459 6.19301C18.2398 5.10476 18.8499 3.72086 18.9829 2.25301C19.0214 1.95033 18.9902 1.64284 18.8916 1.35408C18.793 1.06532 18.6297 0.80295 18.414 0.587049C18.1984 0.371148 17.9363 0.207442 17.6477 0.108464C17.359 0.0094849 17.0516 -0.0221426 16.7489 0.0160022C15.8384 0.087504 14.9543 0.355535 14.1574 0.801628C13.3605 1.24772 12.6698 1.86127 12.1329 2.60001C11.7929 1.74937 11.3122 0.962039 10.7109 0.271003C10.5243 0.0860312 10.2724 -0.0180701 10.0096 -0.018795C9.74687 -0.0195199 9.4944 0.0831899 9.30678 0.267129C9.11917 0.451068 9.01148 0.701456 9.007 0.964161C9.00252 1.22687 9.10162 1.48078 9.28286 1.671C10.2742 2.90543 10.8543 4.4192 10.9419 6.00001H8.49986C6.18076 6.07088 3.98422 7.05774 2.39113 8.74455C0.798036 10.4314 -0.0618024 12.6807 -0.000142817 15C-0.161143 20.6 5.64386 25.773 10.7499 23.385C11.1398 23.1371 11.5931 23.007 12.0552 23.0103C12.5173 23.0137 12.9686 23.1504 13.3549 23.404C14.0077 23.7815 14.7459 23.9866 15.4999 24C25.7639 23.716 27.0659 8.58201 17.2459 6.19301ZM14.2229 3.16801C14.9985 2.4897 15.9725 2.08004 16.9999 2V2C16.9179 3.02517 16.5088 3.99689 15.8329 4.77201C15.0565 5.44989 14.0824 5.85948 13.0549 5.94001C13.1361 4.91448 13.5457 3.94243 14.2229 3.16801V3.16801ZM15.4999 22C15.0592 21.9831 14.6305 21.8518 14.2559 21.619C13.5694 21.2226 12.7925 21.0094 11.9999 21C11.2494 21.0175 10.515 21.2212 9.86286 21.593C6.00486 23.261 1.89986 19.141 1.99986 15C1.93819 13.211 2.58733 11.4704 3.80536 10.1587C5.02339 8.84697 6.71122 8.07085 8.49986 8.00001H15.4999C24.0999 8.32101 24.0999 21.682 15.4999 22Z" />
    </g>
    <defs>
      <clipPath id="clip0_1_61">
        <rect width="24" height="24" fill="white"/>
      </clipPath>
    </defs>
  </symbol>

  <symbol id="water" width="24" height="25" viewBox="0 0 24 25" fill="none">
    <path d="M20 16C20 20.4183 16.4183 24 12 24C7.58172 24 4 20.4183 4 16C4 11.5817 12 2.5 12 2.5C12 2.5 20 11.5817 20 16Z"  stroke-width="2"/>
  </symbol>

  <symbol id="workout" width="24" height="24" viewBox="0 0 24 24" fill="none">
    <g clip-path="url(#clip0_1_75)">
      <path d="M3.61411 4.83333C2.78568 4.83333 2.11411 5.48625 2.11411 6.29167V17.3749C2.11411 18.1804 2.78568 18.8333 3.61411 18.8333C4.44254 18.8333 5.11411 18.1804 5.11411 17.3749V6.29167C5.11411 5.48625 4.44254 4.83333 3.61411 4.83333ZM-0.285889 6.29167C-0.285889 4.19759 1.4602 2.5 3.61411 2.5C5.76802 2.5 7.51411 4.19759 7.51411 6.29167V10.6667H15.9141V6.29167C15.9141 4.19759 17.6602 2.5 19.8141 2.5C21.968 2.5 23.7141 4.19759 23.7141 6.29167V17.3749C23.7141 19.4691 21.968 21.1667 19.8141 21.1667C17.6602 21.1667 15.9141 19.4691 15.9141 17.3749V13H7.51411V17.3749C7.51411 19.4691 5.76802 21.1667 3.61411 21.1667C1.4602 21.1667 -0.285889 19.4691 -0.285889 17.3749V6.29167ZM19.8141 4.83333C18.9857 4.83333 18.3141 5.48625 18.3141 6.29167V17.3749C18.3141 18.1804 18.9857 18.8333 19.8141 18.8333C20.6425 18.8333 21.3141 18.1804 21.3141 17.3749V6.29167C21.3141 5.48625 20.6425 4.83333 19.8141 4.83333Z" />
    </g>
    <defs>
      <clipPath id="clip0_1_75">
        <rect width="24" height="24" fill="white"/>
      </clipPath>
    </defs>
  </symbol>

  <symbol id="rules" width="24" height="24" viewBox="0 0 24 24" fill="none">
    <g clip-path="url(#clip0_1_86)">
      <path d="M12 23.1429C18.1541 23.1429 23.1429 18.1541 23.1429 12C23.1429 5.84601 18.1541 0.857178 12 0.857178C5.84601 0.857178 0.857178 5.84601 0.857178 12C0.857178 18.1541 5.84601 23.1429 12 23.1429Z" stroke-width="2" stroke-linecap="round" stroke-linejoin="round"/>
      <path d="M9 8.9995C9 8.40615 9.17611 7.82614 9.50606 7.33279C9.83599 6.83945 10.305 6.45494 10.8536 6.22786C11.4023 6.00081 12.0061 5.94141 12.5885 6.05716C13.171 6.1729 13.706 6.45862 14.126 6.87819C14.5459 7.29775 14.8319 7.8323 14.9478 8.41423C15.0636 8.99618 15.0042 9.59937 14.7769 10.1475C14.5496 10.6957 14.1647 11.1643 13.6709 11.4939C13.1772 11.8235 12.5966 11.9995 12.0027 11.9995V13.9995"  stroke-width="2" stroke-linecap="round" stroke-linejoin="round"/>
      <path d="M12 17.9289C11.7633 17.9289 11.5714 17.7371 11.5714 17.5003C11.5714 17.2636 11.7633 17.0718 12 17.0718"  stroke-width="2" stroke-linecap="round" stroke-linejoin="round"/>
      <path d="M12 17.9289C12.2367 17.9289 12.4286 17.7371 12.4286 17.5003C12.4286 17.2636 12.2367 17.0718 12 17.0718"  stroke-width="2" stroke-linecap="round" stroke-linejoin="round"/>
    </g>
    <defs>
      <clipPath id="clip0_1_86">
        <rect width="24" height="24" fill="white"/>
      </clipPath>
    </defs>
  </symbol>

  <symbol id="ask" width="20" height="20" viewBox="0 0 20 20" fill="none">
    <g clip-path="url(#clip0_1_38)">
      <path d="M9.99746 0.788332C8.3312 0.78885 6.6963 1.24131 5.26688 2.09753C3.83745 2.95374 2.66703 4.18164 1.88028 5.65044C1.09352 7.11924 0.719893 8.77394 0.799194 10.4383C0.878496 12.1027 1.40775 13.7143 2.3306 15.1016L0.785889 19.2115L5.95853 18.2761C7.20409 18.8848 8.57098 19.2045 9.95728 19.2114C11.3436 19.2182 12.7135 18.9121 13.9651 18.3158C15.2165 17.7195 16.3174 16.8484 17.1854 15.7675C18.0534 14.6865 18.6662 13.4236 18.9782 12.0728C19.2901 10.722 19.2932 9.31827 18.9871 7.96616C18.6811 6.61406 18.0738 5.34846 17.2105 4.26373C16.3472 3.179 15.2502 2.30312 14.0013 1.70137C12.7524 1.09961 11.3838 0.787513 9.99746 0.788332Z" stroke="white" stroke-width="1.5" stroke-linecap="round" stroke-linejoin="round"/>
      <path d="M7.87183 7.87404C7.87183 7.45361 7.9965 7.04261 8.23008 6.69304C8.46365 6.34346 8.79565 6.071 9.18408 5.91011C9.57251 5.74921 9.99993 5.70711 10.4123 5.78914C10.8246 5.87116 11.2034 6.07361 11.5007 6.37091C11.798 6.6682 12.0005 7.04697 12.0825 7.45933C12.1645 7.87168 12.1224 8.2991 11.9615 8.68753C11.8006 9.07596 11.5282 9.40796 11.1786 9.64153C10.829 9.87511 10.418 9.99978 9.99757 9.99978V11.417" stroke="white" stroke-width="1.5" stroke-linecap="round" stroke-linejoin="round"/>
      <path d="M10.0003 14.9601C9.80461 14.9601 9.646 14.8014 9.646 14.6058C9.646 14.4101 9.80461 14.2515 10.0003 14.2515" stroke="white" stroke-width="1.5" stroke-linecap="round" stroke-linejoin="round"/>
      <path d="M10 14.9603C10.1957 14.9603 10.3543 14.8017 10.3543 14.606C10.3543 14.4103 10.1957 14.2517 10 14.2517" stroke="white" stroke-width="1.5" stroke-linecap="round" stroke-linejoin="round"/>
    </g>
    <defs>
      <clipPath id="clip0_1_38">
        <rect width="20" height="20" fill="white"/>
      </clipPath>
    </defs>
  </symbol>

   <symbol id="table" width="25" height="24" viewBox="0 0 25 24" fill="none">
    <g clip-path="url(#clip0_1_352)">
      <path d="M3.125 6.60559H23.125" stroke="#BD2B98" stroke-width="2" stroke-linecap="round" stroke-linejoin="round"/>
      <path d="M21.5865 2H4.66346C3.81379 2 3.125 2.68879 3.125 3.53846V20.4615C3.125 21.3112 3.81379 22 4.66346 22H21.5865C22.4362 22 23.125 21.3112 23.125 20.4615V3.53846C23.125 2.68879 22.4362 2 21.5865 2Z" stroke="#BD2B98" stroke-width="2" stroke-linecap="round" stroke-linejoin="round"/>
    </g>
    <defs>
      <clipPath id="clip0_1_352">
        <rect width="24" height="24" fill="white" transform="translate(0.625)"/>
      </clipPath>
    </defs>
  </symbol>

   <symbol id="home" width="25" height="24" viewBox="0 0 25 24" fill="none">
    <g clip-path="url(#clip0_1_358)">
      <path d="M1.73218 13.7143L12.875 2.57141L24.0179 13.7143" stroke="#BD2B98" stroke-width="2" stroke-linecap="round" stroke-linejoin="round"/>
      <path d="M5.16064 10.2856V21.4285H20.5892V10.2856" stroke="#BD2B98" stroke-width="2" stroke-linecap="round" stroke-linejoin="round"/>
    </g>
    <defs>
      <clipPath id="clip0_1_358">
        <rect width="24" height="24" fill="white" transform="translate(0.875)"/>
      </clipPath>
    </defs>
  </symbol>

  <symbol id="user" width="25" height="24" viewBox="0 0 25 24" fill="none">
    <g clip-path="url(#clip0_1_364)">
      <path d="M12.1251 13.7143C14.492 13.7143 16.4108 11.7955 16.4108 9.42854C16.4108 7.0616 14.492 5.14282 12.1251 5.14282C9.75814 5.14282 7.83936 7.0616 7.83936 9.42854C7.83936 11.7955 9.75814 13.7143 12.1251 13.7143Z" stroke="#BD2B98" stroke-width="2" stroke-linecap="round" stroke-linejoin="round"/>
      <path d="M4.80493 20.4C5.56991 19.1442 6.64506 18.1064 7.92701 17.3864C9.20895 16.6662 10.6546 16.288 12.1249 16.288C13.5953 16.288 15.0409 16.6662 16.3229 17.3864C17.6049 18.1064 18.6799 19.1442 19.445 20.4" stroke="#BD2B98" stroke-width="2" stroke-linecap="round" stroke-linejoin="round"/>
      <path d="M12.125 23.1428C18.2791 23.1428 23.2679 18.1541 23.2679 12C23.2679 5.84595 18.2791 0.857117 12.125 0.857117C5.97101 0.857117 0.982178 5.84595 0.982178 12C0.982178 18.1541 5.97101 23.1428 12.125 23.1428Z" stroke="#BD2B98" stroke-width="2" stroke-linecap="round" stroke-linejoin="round"/>
    </g>
    <defs>
      <clipPath id="clip0_1_364">
        <rect width="24" height="24" fill="white" transform="translate(0.125)"/>
      </clipPath>
    </defs>
  </symbol>

    <symbol id="partners" width="25" height="24" viewBox="0 0 25 24" fill="none">
    <g clip-path="url(#clip0_1_371)">
      <path d="M18.2688 13.7141C16.7444 13.7141 15.5087 12.4783 15.5087 10.954C15.5087 9.42959 16.7444 8.19385 18.2688 8.19385C19.7931 8.19385 21.0289 9.42959 21.0289 10.954C21.0289 12.4783 19.7931 13.7141 18.2688 13.7141Z" stroke="#BD2B98" stroke-width="2" stroke-linecap="round" stroke-linejoin="round"/>
      <path d="M14.2588 17.9745C14.639 17.5726 15.079 17.2286 15.5651 16.9554C16.3907 16.4916 17.3218 16.248 18.2687 16.248C19.2157 16.248 20.1467 16.4916 20.9723 16.9554C21.3294 17.1561 21.6617 17.3949 21.9635 17.6669" stroke="#BD2B98" stroke-width="2" stroke-linecap="round" stroke-linejoin="round"/>
      <path d="M9.33889 12.8284C7.44992 12.8284 5.91858 11.2971 5.91858 9.4081C5.91858 7.51911 7.44992 5.98779 9.33889 5.98779C11.2279 5.98779 12.7592 7.51911 12.7592 9.4081C12.7592 11.2971 11.2279 12.8284 9.33889 12.8284Z" stroke="#BD2B98" stroke-width="2" stroke-linecap="round" stroke-linejoin="round"/>
      <path d="M15.7463 22.5962C15.5757 20.5533 15.0667 19.21 14.7876 18.737C14.1934 17.7268 13.3582 16.8917 12.3625 16.3123C11.3667 15.7329 10.2438 15.4286 9.10172 15.4286C7.95961 15.4286 6.83672 15.7329 5.84096 16.3123C5.04586 16.775 4.35316 17.4005 3.80375 18.1483L3.45544 18.6696" stroke="#BD2B98" stroke-width="2" stroke-linecap="round" stroke-linejoin="round"/>
      <path d="M12.375 23.1428C6.22101 23.1428 1.23218 18.1541 1.23218 12C1.23218 5.84595 6.22101 0.857117 12.375 0.857117C18.5291 0.857117 23.5179 5.84595 23.5179 12C23.5179 18.1541 18.5291 23.1428 12.375 23.1428Z" stroke="#BD2B98" stroke-width="2" stroke-linecap="round" stroke-linejoin="round"/>
    </g>
    <defs>
      <clipPath id="clip0_1_371">
        <rect width="24" height="24" fill="white" transform="translate(0.375)"/>
      </clipPath>
    </defs>
  </symbol>

</svg>
