<svg xmlns="http://www.w3.org/2000/svg" style="display: none;">
 <symbol id="message" viewBox="0 0 24 20">
    <path fill-rule="evenodd" clip-rule="evenodd" d="M2.68256 0C1.20115 0 0.000241262 1.21524 0.000241262 2.71429V3.11993C-8.08727e-05 3.13468 -7.99683e-05 3.14941 0.000241262 3.16412V17.2857C0.000241262 18.7848 1.20117 20 2.68256 20H21.3176C22.7991 20 23.9999 18.7848 23.9999 17.2857V3.1526C24 3.14555 24 3.1385 23.9999 3.13144V2.71429C23.9999 1.21525 22.7991 0 21.3176 0H2.68256ZM22.0119 2.58448C21.9515 2.25196 21.6637 2 21.3176 2H2.68256C2.33649 2 2.04858 2.25202 1.9883 2.58459L11.4196 8.32425C11.5545 8.40332 11.7599 8.4644 12 8.4644C12.2401 8.4644 12.4455 8.40332 12.5804 8.32425L22.0119 2.58448ZM1.97669 4.91136V17.2857C1.97669 17.6802 2.29271 18 2.68256 18H21.3176C21.7075 18 22.0235 17.6802 22.0235 17.2857V4.91124L13.5846 10.0469C13.1105 10.3285 12.5501 10.4644 12 10.4644C11.4499 10.4644 10.8895 10.3285 10.4155 10.0469L10.4064 10.0415L1.97669 4.91136Z"/>
  </symbol>

  <symbol id="report" width="24" height="24" viewBox="0 0 24 24" >
  <path d="M5.52234 0C4.94532 0 4.47756 0.44245 4.47756 0.98824C4.47756 1.53403 4.94532 1.97648 5.52234 1.97648H17.1642C17.3621 1.97648 17.552 2.05089 17.6918 2.18316C17.8318 2.31564 17.9104 2.49525 17.9104 2.68236V18.7766C17.9104 19.3223 18.3782 19.7648 18.9552 19.7648C19.5322 19.7648 20 19.3223 20 18.7766V2.68236C20 1.97085 19.7011 1.28866 19.1695 0.785715C18.6376 0.282571 17.9162 0 17.1642 0H5.52234Z"/>
<path d="M3.58199 8.61187C3.58199 8.06608 4.04976 7.62363 4.62677 7.62363H11.791C12.368 7.62363 12.8358 8.06608 12.8358 8.61187C12.8358 9.15766 12.368 9.60011 11.791 9.60011H4.62677C4.04976 9.60011 3.58199 9.15766 3.58199 8.61187Z" />
<path d="M4.62677 11.8589C4.04976 11.8589 3.58199 12.3013 3.58199 12.8471C3.58199 13.3929 4.04976 13.8354 4.62677 13.8354H11.791C12.368 13.8354 12.8358 13.3929 12.8358 12.8471C12.8358 12.3013 12.368 11.8589 11.791 11.8589H4.62677Z" />
<path d="M3.58199 17.0824C3.58199 16.5366 4.04976 16.0941 4.62677 16.0941H8.20888C8.78589 16.0941 9.25366 16.5366 9.25366 17.0824C9.25366 17.6281 8.78589 18.0706 8.20888 18.0706H4.62677C4.04976 18.0706 3.58199 17.6281 3.58199 17.0824Z" />
<path fill-rule="evenodd" clip-rule="evenodd" d="M0 6.07051C0 4.58909 1.26965 3.38815 2.83583 3.38815H13.5821C15.1483 3.38815 16.418 4.58909 16.418 6.07051V21.3176C16.418 22.7991 15.1483 24 13.5821 24H2.83583C1.26967 24 0 22.7991 0 21.3176V6.07051ZM2.83583 5.36463C2.42369 5.36463 2.08956 5.68067 2.08956 6.07051V21.3176C2.08956 21.7075 2.42367 22.0235 2.83583 22.0235H13.5821C13.9943 22.0235 14.3284 21.7075 14.3284 21.3176V6.07051C14.3284 5.68067 13.9943 5.36463 13.5821 5.36463H2.83583Z" />

  </symbol>

<symbol id="setting" width="24" height="24" viewBox="0 0 24 24" >
<g clip-path="url(#clip0_54_8)">
<path fill-rule="evenodd" clip-rule="evenodd" d="M0 12C0 5.37305 5.37305 0 12 0C18.6269 0 24 5.37305 24 12C24 18.6269 18.6269 24 12 24C5.37305 24 0 18.6269 0 12ZM12 1.97955C6.46687 1.97955 1.97955 6.46687 1.97955 12C1.97955 17.5331 6.46687 22.0205 12 22.0205C17.5331 22.0205 22.0205 17.5331 22.0205 12C22.0205 6.46687 17.5331 1.97955 12 1.97955Z" />
<path d="M10.1432 9.14329C10.1432 9.69414 9.69494 10.1424 9.1441 10.1424C8.59326 10.1424 8.14502 9.69414 8.14502 9.14329C8.14502 8.75446 8.20442 8.36563 8.32323 7.9822C8.43664 7.60417 8.60406 7.24774 8.82547 6.91832C9.04689 6.58349 9.31691 6.29187 9.61394 6.04885L9.68954 5.99484C9.97577 5.76802 10.289 5.58441 10.6238 5.4494L10.6832 5.4278C11.0288 5.29279 11.3961 5.20098 11.7633 5.16318C12.1575 5.12537 12.5518 5.14157 12.9298 5.21718C13.3132 5.29279 13.6859 5.4278 14.0369 5.61681C14.3879 5.80583 14.7119 6.03804 14.982 6.31347L15.0414 6.37827C15.2952 6.64289 15.5058 6.93992 15.6786 7.25854C15.8622 7.60417 15.9972 7.9768 16.0783 8.36023C16.1539 8.74366 16.1701 9.13789 16.1323 9.53212C16.0945 9.92635 15.9972 10.3098 15.846 10.6716L15.819 10.7256C15.6732 11.0712 15.4734 11.3899 15.2412 11.6761C14.9928 11.9785 14.7011 12.2431 14.3717 12.4646C14.0369 12.686 13.6805 12.8588 13.3078 12.9722L13.1458 13.0154V14.1441C13.1458 14.6949 12.6976 15.1432 12.1467 15.1432C11.5959 15.1432 11.1477 14.6949 11.1477 14.1441V12.1459C11.1477 11.5951 11.5959 11.1469 12.1467 11.1469C12.3304 11.1469 12.5032 11.1253 12.6652 11.082L12.73 11.0604C12.9244 11.001 13.1026 10.92 13.2592 10.812C13.4266 10.6986 13.5725 10.569 13.6967 10.4178C13.8101 10.2774 13.9073 10.1208 13.9829 9.95336L13.9991 9.91015C14.0747 9.72654 14.1233 9.53212 14.1449 9.34311C14.1611 9.15409 14.1503 8.95428 14.1125 8.75446V8.74906C14.0747 8.55465 14.0045 8.36563 13.9181 8.19822C13.8371 8.04701 13.7345 7.90119 13.6103 7.77158L13.5617 7.72838C13.4158 7.58257 13.2592 7.46376 13.0918 7.37735C12.9244 7.28554 12.7354 7.22074 12.541 7.18294C12.3412 7.14513 12.1413 7.13433 11.9469 7.15053C11.7687 7.16673 11.5851 7.20994 11.4123 7.28014L11.3745 7.29635C11.2071 7.36655 11.0559 7.45296 10.9154 7.55557L10.8668 7.59877C10.7102 7.72838 10.5752 7.87419 10.4726 8.0308C10.3592 8.19822 10.2782 8.37643 10.2188 8.56005C10.1648 8.73826 10.1378 8.93268 10.1378 9.14329H10.1432Z" />
<path d="M12.1465 19.0586C12.9398 19.0586 13.583 18.4154 13.583 17.6221C13.583 16.8287 12.9398 16.1855 12.1465 16.1855C11.3531 16.1855 10.71 16.8287 10.71 17.6221C10.71 18.4154 11.3531 19.0586 12.1465 19.0586Z" />
</g>
<defs>
<clipPath id="clip0_54_8">
<rect width="24" height="24" fill="white"/>
</clipPath>
</defs>
</symbol>


<symbol id="apple" viewBox="0 0 24 24">
<path d="M17.2459 6.19301C18.2398 5.10476 18.8499 3.72086 18.9829 2.25301C19.0214 1.95033 18.9902 1.64284 18.8916 1.35408C18.793 1.06532 18.6297 0.80295 18.414 0.587049C18.1984 0.371148 17.9363 0.207442 17.6477 0.108464C17.359 0.0094849 17.0516 -0.0221426 16.7489 0.0160022C15.8384 0.087504 14.9543 0.355535 14.1574 0.801628C13.3605 1.24772 12.6698 1.86127 12.1329 2.60001C11.7929 1.74937 11.3122 0.962039 10.7109 0.271003C10.5243 0.0860312 10.2724 -0.0180701 10.0096 -0.018795C9.74687 -0.0195199 9.4944 0.0831899 9.30678 0.267129C9.11917 0.451068 9.01148 0.701456 9.007 0.964161C9.00252 1.22687 9.10162 1.48078 9.28286 1.671C10.2742 2.90543 10.8543 4.4192 10.9419 6.00001H8.49986C6.18076 6.07088 3.98422 7.05774 2.39113 8.74455C0.798036 10.4314 -0.0618024 12.6807 -0.000142817 15C-0.161143 20.6 5.64386 25.773 10.7499 23.385C11.1398 23.1371 11.5931 23.007 12.0552 23.0103C12.5173 23.0137 12.9686 23.1504 13.3549 23.404C14.0077 23.7815 14.7459 23.9866 15.4999 24C25.7639 23.716 27.0659 8.58201 17.2459 6.19301ZM14.2229 3.16801C14.9985 2.4897 15.9725 2.08004 16.9999 2V2C16.9179 3.02517 16.5088 3.99689 15.8329 4.77201C15.0565 5.44989 14.0824 5.85948 13.0549 5.94001C13.1361 4.91448 13.5457 3.94243 14.2229 3.16801V3.16801ZM15.4999 22C15.0592 21.9831 14.6305 21.8518 14.2559 21.619C13.5694 21.2226 12.7925 21.0094 11.9999 21C11.2494 21.0175 10.515 21.2212 9.86286 21.593C6.00486 23.261 1.89986 19.141 1.99986 15C1.93819 13.211 2.58733 11.4704 3.80536 10.1587C5.02339 8.84697 6.71122 8.07085 8.49986 8.00001H15.4999C24.0999 8.32101 24.0999 21.682 15.4999 22Z"/>
</symbol>


    <symbol id="water" viewBox="0 0 18 25">
    <path fill-rule="evenodd" clip-rule="evenodd" d="M9.75038 1.83891L9 2.49991L8.24962 1.83891L9 0.987061L9.75038 1.83891ZM9 4.04325C8.85741 4.21445 8.6981 4.40749 8.52523 4.61964C7.78459 5.5286 6.79922 6.78343 5.81595 8.17118C4.83011 9.56254 3.86039 11.068 3.1411 12.4804C2.40503 13.9258 2 15.144 2 15.9999C2 19.8659 5.13401 22.9999 9 22.9999C12.866 22.9999 16 19.8659 16 15.9999C16 15.144 15.595 13.9258 14.8589 12.4804C14.1396 11.068 13.1699 9.56254 12.1841 8.17118C11.2008 6.78343 10.2154 5.5286 9.47477 4.61964C9.3019 4.40749 9.14259 4.21445 9 4.04325ZM9 2.49991C8.24962 1.83891 8.24962 1.83891 8.24962 1.83891L8.24256 1.84694L8.22411 1.86801L8.15453 1.94798C8.0941 2.01769 8.00622 2.11967 7.8948 2.25054C7.67201 2.51225 7.35487 2.88981 6.97477 3.35629C6.21541 4.28822 5.20078 5.57997 4.18405 7.01493C3.16989 8.44628 2.13961 10.0397 1.3589 11.5728C0.594965 13.0729 0 14.6467 0 15.9999C0 20.9705 4.02944 24.9999 9 24.9999C13.9706 24.9999 18 20.9705 18 15.9999C18 14.6467 17.405 13.0729 16.6411 11.5728C15.8604 10.0397 14.8301 8.44628 13.8159 7.01493C12.7992 5.57997 11.7846 4.28822 11.0252 3.35629C10.6451 2.88981 10.328 2.51225 10.1052 2.25054C9.99378 2.11967 9.9059 2.01769 9.84547 1.94798L9.77589 1.86801L9.75744 1.84694L9.75106 1.83968C9.75106 1.83968 9.75038 1.83891 9 2.49991Z"  stroke-width="2" />
  </symbol>
  
<symbol id="workout" viewBox="0 0 24 24">
<path d="M3.9 2.375C3.07157 2.375 2.4 3.03958 2.4 3.85937V15.1406C2.4 15.9604 3.07157 16.625 3.9 16.625C4.72843 16.625 5.4 15.9604 5.4 15.1406V3.85937C5.4 3.03958 4.72843 2.375 3.9 2.375ZM0 3.85937C0 1.7279 1.74609 0 3.9 0C6.05391 0 7.8 1.7279 7.8 3.85937V8.3125H16.2V3.85937C16.2 1.7279 17.9461 0 20.1 0C22.2539 0 24 1.7279 24 3.85937V15.1406C24 17.2721 22.2539 19 20.1 19C17.9461 19 16.2 17.2721 16.2 15.1406V10.6875H7.8V15.1406C7.8 17.2721 6.05391 19 3.9 19C1.74609 19 0 17.2721 0 15.1406V3.85937ZM20.1 2.375C19.2716 2.375 18.6 3.03958 18.6 3.85937V15.1406C18.6 15.9604 19.2716 16.625 20.1 16.625C20.9284 16.625 21.6 15.9604 21.6 15.1406V3.85937C21.6 3.03958 20.9284 2.375 20.1 2.375Z" />

  </symbol>

  <symbol id="rules" width="24" height="24" viewBox="0 0 24 24">
  <g clip-path="url(#clip0_54_8)">
<path fill-rule="evenodd" clip-rule="evenodd" d="M0 12C0 5.37305 5.37305 0 12 0C18.6269 0 24 5.37305 24 12C24 18.6269 18.6269 24 12 24C5.37305 24 0 18.6269 0 12ZM12 1.97955C6.46687 1.97955 1.97955 6.46687 1.97955 12C1.97955 17.5331 6.46687 22.0205 12 22.0205C17.5331 22.0205 22.0205 17.5331 22.0205 12C22.0205 6.46687 17.5331 1.97955 12 1.97955Z" />
<path d="M10.1432 9.14329C10.1432 9.69414 9.69494 10.1424 9.1441 10.1424C8.59326 10.1424 8.14502 9.69414 8.14502 9.14329C8.14502 8.75446 8.20442 8.36563 8.32323 7.9822C8.43664 7.60417 8.60406 7.24774 8.82547 6.91832C9.04689 6.58349 9.31691 6.29187 9.61394 6.04885L9.68954 5.99484C9.97577 5.76802 10.289 5.58441 10.6238 5.4494L10.6832 5.4278C11.0288 5.29279 11.3961 5.20098 11.7633 5.16318C12.1575 5.12537 12.5518 5.14157 12.9298 5.21718C13.3132 5.29279 13.6859 5.4278 14.0369 5.61681C14.3879 5.80583 14.7119 6.03804 14.982 6.31347L15.0414 6.37827C15.2952 6.64289 15.5058 6.93992 15.6786 7.25854C15.8622 7.60417 15.9972 7.9768 16.0783 8.36023C16.1539 8.74366 16.1701 9.13789 16.1323 9.53212C16.0945 9.92635 15.9972 10.3098 15.846 10.6716L15.819 10.7256C15.6732 11.0712 15.4734 11.3899 15.2412 11.6761C14.9928 11.9785 14.7011 12.2431 14.3717 12.4646C14.0369 12.686 13.6805 12.8588 13.3078 12.9722L13.1458 13.0154V14.1441C13.1458 14.6949 12.6976 15.1432 12.1467 15.1432C11.5959 15.1432 11.1477 14.6949 11.1477 14.1441V12.1459C11.1477 11.5951 11.5959 11.1469 12.1467 11.1469C12.3304 11.1469 12.5032 11.1253 12.6652 11.082L12.73 11.0604C12.9244 11.001 13.1026 10.92 13.2592 10.812C13.4266 10.6986 13.5725 10.569 13.6967 10.4178C13.8101 10.2774 13.9073 10.1208 13.9829 9.95336L13.9991 9.91015C14.0747 9.72654 14.1233 9.53212 14.1449 9.34311C14.1611 9.15409 14.1503 8.95428 14.1125 8.75446V8.74906C14.0747 8.55465 14.0045 8.36563 13.9181 8.19822C13.8371 8.04701 13.7345 7.90119 13.6103 7.77158L13.5617 7.72838C13.4158 7.58257 13.2592 7.46376 13.0918 7.37735C12.9244 7.28554 12.7354 7.22074 12.541 7.18294C12.3412 7.14513 12.1413 7.13433 11.9469 7.15053C11.7687 7.16673 11.5851 7.20994 11.4123 7.28014L11.3745 7.29635C11.2071 7.36655 11.0559 7.45296 10.9154 7.55557L10.8668 7.59877C10.7102 7.72838 10.5752 7.87419 10.4726 8.0308C10.3592 8.19822 10.2782 8.37643 10.2188 8.56005C10.1648 8.73826 10.1378 8.93268 10.1378 9.14329H10.1432Z" />
<path d="M12.1465 19.0586C12.9398 19.0586 13.583 18.4154 13.583 17.6221C13.583 16.8287 12.9398 16.1855 12.1465 16.1855C11.3531 16.1855 10.71 16.8287 10.71 17.6221C10.71 18.4154 11.3531 19.0586 12.1465 19.0586Z" />
</g>
<defs>
<clipPath id="clip0_54_8">
<rect width="24" height="24" fill="white"/>
</clipPath>
</defs>

  </symbol>

  <symbol id="ask" width="20" height="20" viewBox="0 0 20 20" fill="none">
    <g clip-path="url(#clip0_1_38)">
      <path d="M9.99746 0.788332C8.3312 0.78885 6.6963 1.24131 5.26688 2.09753C3.83745 2.95374 2.66703 4.18164 1.88028 5.65044C1.09352 7.11924 0.719893 8.77394 0.799194 10.4383C0.878496 12.1027 1.40775 13.7143 2.3306 15.1016L0.785889 19.2115L5.95853 18.2761C7.20409 18.8848 8.57098 19.2045 9.95728 19.2114C11.3436 19.2182 12.7135 18.9121 13.9651 18.3158C15.2165 17.7195 16.3174 16.8484 17.1854 15.7675C18.0534 14.6865 18.6662 13.4236 18.9782 12.0728C19.2901 10.722 19.2932 9.31827 18.9871 7.96616C18.6811 6.61406 18.0738 5.34846 17.2105 4.26373C16.3472 3.179 15.2502 2.30312 14.0013 1.70137C12.7524 1.09961 11.3838 0.787513 9.99746 0.788332Z" stroke="white" stroke-width="1.5" stroke-linecap="round" stroke-linejoin="round"/>
      <path d="M7.87183 7.87404C7.87183 7.45361 7.9965 7.04261 8.23008 6.69304C8.46365 6.34346 8.79565 6.071 9.18408 5.91011C9.57251 5.74921 9.99993 5.70711 10.4123 5.78914C10.8246 5.87116 11.2034 6.07361 11.5007 6.37091C11.798 6.6682 12.0005 7.04697 12.0825 7.45933C12.1645 7.87168 12.1224 8.2991 11.9615 8.68753C11.8006 9.07596 11.5282 9.40796 11.1786 9.64153C10.829 9.87511 10.418 9.99978 9.99757 9.99978V11.417" stroke="white" stroke-width="1.5" stroke-linecap="round" stroke-linejoin="round"/>
      <path d="M10.0003 14.9601C9.80461 14.9601 9.646 14.8014 9.646 14.6058C9.646 14.4101 9.80461 14.2515 10.0003 14.2515" stroke="white" stroke-width="1.5" stroke-linecap="round" stroke-linejoin="round"/>
      <path d="M10 14.9603C10.1957 14.9603 10.3543 14.8017 10.3543 14.606C10.3543 14.4103 10.1957 14.2517 10 14.2517" stroke="white" stroke-width="1.5" stroke-linecap="round" stroke-linejoin="round"/>
    </g>
    <defs>
      <clipPath id="clip0_1_38">
        <rect width="20" height="20" fill="white"/>
      </clipPath>
    </defs>
  </symbol>

   <symbol id="table" width="25" height="24" viewBox="0 0 25 24" fill="none">
    <g clip-path="url(#clip0_1_352)">
      <path d="M3.125 6.60559H23.125" stroke="#BD2B98" stroke-width="2" stroke-linecap="round" stroke-linejoin="round"/>
      <path d="M21.5865 2H4.66346C3.81379 2 3.125 2.68879 3.125 3.53846V20.4615C3.125 21.3112 3.81379 22 4.66346 22H21.5865C22.4362 22 23.125 21.3112 23.125 20.4615V3.53846C23.125 2.68879 22.4362 2 21.5865 2Z" stroke="#BD2B98" stroke-width="2" stroke-linecap="round" stroke-linejoin="round"/>
    </g>
    <defs>
      <clipPath id="clip0_1_352">
        <rect width="24" height="24" fill="white" transform="translate(0.625)"/>
      </clipPath>
    </defs>
  </symbol>

   <symbol id="home" width="25" height="24" viewBox="0 0 25 24" fill="none">
    <g clip-path="url(#clip0_1_358)">
      <path d="M1.73218 13.7143L12.875 2.57141L24.0179 13.7143" stroke="#BD2B98" stroke-width="2" stroke-linecap="round" stroke-linejoin="round"/>
      <path d="M5.16064 10.2856V21.4285H20.5892V10.2856" stroke="#BD2B98" stroke-width="2" stroke-linecap="round" stroke-linejoin="round"/>
    </g>
    <defs>
      <clipPath id="clip0_1_358">
        <rect width="24" height="24" fill="white" transform="translate(0.875)"/>
      </clipPath>
    </defs>
  </symbol>

  <symbol id="user" width="25" height="24" viewBox="0 0 25 24" fill="none">
    <g clip-path="url(#clip0_1_364)">
      <path d="M12.1251 13.7143C14.492 13.7143 16.4108 11.7955 16.4108 9.42854C16.4108 7.0616 14.492 5.14282 12.1251 5.14282C9.75814 5.14282 7.83936 7.0616 7.83936 9.42854C7.83936 11.7955 9.75814 13.7143 12.1251 13.7143Z" stroke="#BD2B98" stroke-width="2" stroke-linecap="round" stroke-linejoin="round"/>
      <path d="M4.80493 20.4C5.56991 19.1442 6.64506 18.1064 7.92701 17.3864C9.20895 16.6662 10.6546 16.288 12.1249 16.288C13.5953 16.288 15.0409 16.6662 16.3229 17.3864C17.6049 18.1064 18.6799 19.1442 19.445 20.4" stroke="#BD2B98" stroke-width="2" stroke-linecap="round" stroke-linejoin="round"/>
      <path d="M12.125 23.1428C18.2791 23.1428 23.2679 18.1541 23.2679 12C23.2679 5.84595 18.2791 0.857117 12.125 0.857117C5.97101 0.857117 0.982178 5.84595 0.982178 12C0.982178 18.1541 5.97101 23.1428 12.125 23.1428Z" stroke="#BD2B98" stroke-width="2" stroke-linecap="round" stroke-linejoin="round"/>
    </g>
    <defs>
      <clipPath id="clip0_1_364">
        <rect width="24" height="24" fill="white" transform="translate(0.125)"/>
      </clipPath>
    </defs>
  </symbol>

    <symbol id="partners" width="25" height="24" viewBox="0 0 25 24" fill="none">
    <g clip-path="url(#clip0_1_371)">
      <path d="M18.2688 13.7141C16.7444 13.7141 15.5087 12.4783 15.5087 10.954C15.5087 9.42959 16.7444 8.19385 18.2688 8.19385C19.7931 8.19385 21.0289 9.42959 21.0289 10.954C21.0289 12.4783 19.7931 13.7141 18.2688 13.7141Z" stroke="#BD2B98" stroke-width="2" stroke-linecap="round" stroke-linejoin="round"/>
      <path d="M14.2588 17.9745C14.639 17.5726 15.079 17.2286 15.5651 16.9554C16.3907 16.4916 17.3218 16.248 18.2687 16.248C19.2157 16.248 20.1467 16.4916 20.9723 16.9554C21.3294 17.1561 21.6617 17.3949 21.9635 17.6669" stroke="#BD2B98" stroke-width="2" stroke-linecap="round" stroke-linejoin="round"/>
      <path d="M9.33889 12.8284C7.44992 12.8284 5.91858 11.2971 5.91858 9.4081C5.91858 7.51911 7.44992 5.98779 9.33889 5.98779C11.2279 5.98779 12.7592 7.51911 12.7592 9.4081C12.7592 11.2971 11.2279 12.8284 9.33889 12.8284Z" stroke="#BD2B98" stroke-width="2" stroke-linecap="round" stroke-linejoin="round"/>
      <path d="M15.7463 22.5962C15.5757 20.5533 15.0667 19.21 14.7876 18.737C14.1934 17.7268 13.3582 16.8917 12.3625 16.3123C11.3667 15.7329 10.2438 15.4286 9.10172 15.4286C7.95961 15.4286 6.83672 15.7329 5.84096 16.3123C5.04586 16.775 4.35316 17.4005 3.80375 18.1483L3.45544 18.6696" stroke="#BD2B98" stroke-width="2" stroke-linecap="round" stroke-linejoin="round"/>
      <path d="M12.375 23.1428C6.22101 23.1428 1.23218 18.1541 1.23218 12C1.23218 5.84595 6.22101 0.857117 12.375 0.857117C18.5291 0.857117 23.5179 5.84595 23.5179 12C23.5179 18.1541 18.5291 23.1428 12.375 23.1428Z" stroke="#BD2B98" stroke-width="2" stroke-linecap="round" stroke-linejoin="round"/>
    </g>
    <defs>
      <clipPath id="clip0_1_371">
        <rect width="24" height="24" fill="white" transform="translate(0.375)"/>
      </clipPath>
    </defs>
  </symbol>

</svg>
