<svg xmlns="http://www.w3.org/2000/svg" style="display: none;">
  <symbol id="message" viewBox="0 0 24 20">
    <path
      fill-rule="evenodd"
      clip-rule="evenodd"
      d="M2.68256 0C1.20115 0 0.000241262 1.21524 0.000241262 2.71429V3.11993C-8.08727e-05 3.13468 -7.99683e-05 3.14941 0.000241262 3.16412V17.2857C0.000241262 18.7848 1.20117 20 2.68256 20H21.3176C22.7991 20 23.9999 18.7848 23.9999 17.2857V3.1526C24 3.14555 24 3.1385 23.9999 3.13144V2.71429C23.9999 1.21525 22.7991 0 21.3176 0H2.68256ZM22.0119 2.58448C21.9515 2.25196 21.6637 2 21.3176 2H2.68256C2.33649 2 2.04858 2.25202 1.9883 2.58459L11.4196 8.32425C11.5545 8.40332 11.7599 8.4644 12 8.4644C12.2401 8.4644 12.4455 8.40332 12.5804 8.32425L22.0119 2.58448ZM1.97669 4.91136V17.2857C1.97669 17.6802 2.29271 18 2.68256 18H21.3176C21.7075 18 22.0235 17.6802 22.0235 17.2857V4.91124L13.5846 10.0469C13.1105 10.3285 12.5501 10.4644 12 10.4644C11.4499 10.4644 10.8895 10.3285 10.4155 10.0469L10.4064 10.0415L1.97669 4.91136Z"
    />
  </symbol>

  <symbol id="report" width="24" height="24" viewBox="0 0 24 24">
    <path
      d="M5.52234 0C4.94532 0 4.47756 0.44245 4.47756 0.98824C4.47756 1.53403 4.94532 1.97648 5.52234 1.97648H17.1642C17.3621 1.97648 17.552 2.05089 17.6918 2.18316C17.8318 2.31564 17.9104 2.49525 17.9104 2.68236V18.7766C17.9104 19.3223 18.3782 19.7648 18.9552 19.7648C19.5322 19.7648 20 19.3223 20 18.7766V2.68236C20 1.97085 19.7011 1.28866 19.1695 0.785715C18.6376 0.282571 17.9162 0 17.1642 0H5.52234Z"
    />
    <path
      d="M3.58199 8.61187C3.58199 8.06608 4.04976 7.62363 4.62677 7.62363H11.791C12.368 7.62363 12.8358 8.06608 12.8358 8.61187C12.8358 9.15766 12.368 9.60011 11.791 9.60011H4.62677C4.04976 9.60011 3.58199 9.15766 3.58199 8.61187Z"
    />
    <path
      d="M4.62677 11.8589C4.04976 11.8589 3.58199 12.3013 3.58199 12.8471C3.58199 13.3929 4.04976 13.8354 4.62677 13.8354H11.791C12.368 13.8354 12.8358 13.3929 12.8358 12.8471C12.8358 12.3013 12.368 11.8589 11.791 11.8589H4.62677Z"
    />
    <path
      d="M3.58199 17.0824C3.58199 16.5366 4.04976 16.0941 4.62677 16.0941H8.20888C8.78589 16.0941 9.25366 16.5366 9.25366 17.0824C9.25366 17.6281 8.78589 18.0706 8.20888 18.0706H4.62677C4.04976 18.0706 3.58199 17.6281 3.58199 17.0824Z"
    />
    <path
      fill-rule="evenodd"
      clip-rule="evenodd"
      d="M0 6.07051C0 4.58909 1.26965 3.38815 2.83583 3.38815H13.5821C15.1483 3.38815 16.418 4.58909 16.418 6.07051V21.3176C16.418 22.7991 15.1483 24 13.5821 24H2.83583C1.26967 24 0 22.7991 0 21.3176V6.07051ZM2.83583 5.36463C2.42369 5.36463 2.08956 5.68067 2.08956 6.07051V21.3176C2.08956 21.7075 2.42367 22.0235 2.83583 22.0235H13.5821C13.9943 22.0235 14.3284 21.7075 14.3284 21.3176V6.07051C14.3284 5.68067 13.9943 5.36463 13.5821 5.36463H2.83583Z"
    />
  </symbol>

  <symbol id="setting" width="24" height="24" viewBox="0 0 24 24">
    <g clip-path="url(#clip0_54_2)">
      <path
        d="M8.25412 3.27151L8.8725 1.65977C8.96764 1.43029 9.0892 1.21681 9.24247 1.02468C9.40103 0.816544 9.60188 0.629753 9.82386 0.469646L9.86086 0.448299C10.0723 0.304203 10.2995 0.197465 10.5374 0.122749C10.7858 0.0426951 11.0501 0.00533689 11.3196 0.00533689L12.6991 0L12.8101 0.00533689C13.0426 0.0160107 13.2699 0.0533689 13.4866 0.122749C13.735 0.202802 13.9781 0.320213 14.2001 0.474983C14.4221 0.629753 14.6177 0.816544 14.7815 1.02468L14.8396 1.10474C14.9771 1.29153 15.088 1.49967 15.1726 1.71848L15.7699 3.27685L17.6197 4.34957L19.2687 4.0934L19.3639 4.08272C19.5964 4.05604 19.829 4.06671 20.0563 4.10407C20.31 4.14676 20.5637 4.22682 20.8015 4.34423C21.034 4.46164 21.2507 4.61107 21.441 4.79253C21.6313 4.96865 21.8004 5.17678 21.9273 5.40627C22.1651 5.81721 22.4294 6.25484 22.6408 6.67111C22.7571 6.88459 22.8416 7.10874 22.8945 7.33289C22.9526 7.5944 22.9738 7.86124 22.9579 8.12809V8.13342C22.9421 8.40027 22.8786 8.66711 22.7835 8.91795C22.6884 9.16344 22.5562 9.39827 22.3924 9.6064L21.3776 10.9139V13.0754L22.4241 14.3829C22.5932 14.5964 22.7254 14.8312 22.8205 15.0767C22.9156 15.3276 22.979 15.5944 22.9949 15.8666C23.0108 16.1334 22.9896 16.4056 22.9315 16.6618C22.8733 16.9126 22.7729 17.1634 22.6408 17.3983L21.9643 18.5937C21.8321 18.8232 21.6683 19.0314 21.478 19.2128L21.4093 19.2715C21.2349 19.4263 21.0446 19.5544 20.8385 19.6558C20.6006 19.7732 20.347 19.8532 20.0933 19.8959C19.8396 19.9386 19.5753 19.9386 19.3163 19.9066L17.6514 19.6504L15.8016 20.7232L15.1779 22.3402C15.0828 22.5697 14.9612 22.7832 14.8079 22.9753C14.6494 23.1835 14.4485 23.3702 14.2265 23.5304L14.1895 23.5517C13.9781 23.6905 13.7509 23.8025 13.513 23.8773C13.2646 23.9573 13.0003 23.9947 12.7255 23.9947L11.3143 24C11.0395 23.9947 10.7752 23.9573 10.5268 23.8773C10.2784 23.7972 10.0406 23.6798 9.81857 23.525C9.59659 23.3702 9.39575 23.1835 9.2319 22.9753L9.17376 22.8953C9.03634 22.7085 8.92535 22.5003 8.84079 22.2815L8.24354 20.7232L6.39368 19.6504L4.74466 19.9066L4.64423 19.9173C4.41168 19.944 4.17913 19.9333 3.95186 19.8959C3.69288 19.8532 3.44446 19.7732 3.20662 19.6558C2.96878 19.5384 2.7468 19.3836 2.56181 19.2128C2.37154 19.0314 2.2077 18.8232 2.07556 18.5937C1.84829 18.1828 1.60517 17.7772 1.38319 17.3662C1.25634 17.1421 1.16649 16.9073 1.10835 16.6618C1.05021 16.4056 1.02907 16.1334 1.04493 15.8666C1.06078 15.5944 1.12421 15.3276 1.21934 15.0767L1.24048 15.018C1.33562 14.7885 1.45718 14.5751 1.61046 14.3829L2.62524 13.0754V10.9139L1.57875 9.6064C1.4149 9.39827 1.28277 9.16344 1.18235 8.91261C1.08721 8.66178 1.02378 8.40027 1.00793 8.12809C0.986787 7.8559 1.00793 7.58906 1.07135 7.32755C1.12949 7.07672 1.22991 6.82588 1.36204 6.5964L2.03857 5.40093C2.16541 5.17678 2.32926 4.96865 2.52482 4.78719V4.78185C2.7098 4.60574 2.9265 4.4563 3.16963 4.33889C3.40747 4.22148 3.66116 4.14143 3.91486 4.09873C4.16856 4.05604 4.43282 4.05604 4.6918 4.08806L6.35668 4.34423L8.23826 3.26618L8.25412 3.27151ZM10.6695 2.42829L9.95599 4.28552C9.882 4.499 9.72872 4.69113 9.51731 4.80854L7.09135 6.20147C6.89579 6.32955 6.65795 6.38826 6.40954 6.3509L4.42754 6.0467C4.36411 6.03602 4.2954 6.04136 4.23198 6.0467C4.16327 6.05737 4.09984 6.07872 4.03642 6.11074C3.97828 6.13743 3.92014 6.18012 3.86729 6.23349C3.81972 6.27618 3.77744 6.32955 3.74044 6.3936L3.06392 7.58372C3.03221 7.64243 3.00578 7.70647 2.98993 7.78119C2.97407 7.85057 2.96879 7.92528 2.97407 7.99466C2.97936 8.06938 2.99521 8.13876 3.02164 8.2028C3.04278 8.26684 3.07978 8.33089 3.12735 8.38959L4.33768 9.90527C4.50153 10.0814 4.59667 10.3162 4.59667 10.5777V13.4223C4.59667 13.6358 4.52796 13.8492 4.38525 14.0307L3.15377 15.6104C3.11677 15.6584 3.08506 15.7118 3.05864 15.7652L3.04807 15.7972C3.02164 15.8612 3.00578 15.9306 3.0005 16C2.99521 16.0747 3.0005 16.1441 3.01635 16.2188C3.03221 16.2829 3.05335 16.3416 3.07978 16.3949C3.31762 16.7952 3.52903 17.2115 3.76687 17.6064C3.80387 17.6651 3.84615 17.7238 3.89372 17.7665C3.94657 17.8145 4.00471 17.8572 4.06285 17.8893C4.12099 17.9213 4.1897 17.9426 4.25841 17.9533C4.31126 17.964 4.3694 17.964 4.42754 17.9586L6.43596 17.6491V17.6544C6.64737 17.6224 6.86936 17.6598 7.06492 17.7718L9.48031 19.1755C9.68116 19.2822 9.85029 19.4636 9.94014 19.6931L10.6589 21.5717C10.6748 21.6251 10.7012 21.6731 10.7329 21.7158L10.7699 21.7585C10.8122 21.8119 10.8651 21.8652 10.9179 21.9026L10.9232 21.9079C10.9761 21.9453 11.0395 21.9773 11.1082 21.9987C11.1769 22.02 11.2509 22.0307 11.3143 22.0307L12.7255 22.0254C12.7889 22.0307 12.8576 22.0147 12.9316 21.9933C12.9898 21.9773 13.0479 21.9506 13.1008 21.9133L13.1219 21.8973C13.1748 21.8599 13.2276 21.8119 13.2699 21.7532H13.2752C13.3122 21.7051 13.3439 21.6571 13.365 21.5984L14.0997 19.6878C14.179 19.485 14.3217 19.3089 14.5225 19.1915L16.9009 17.8092C17.0965 17.6704 17.3449 17.6064 17.6039 17.6438L19.5859 17.948C19.6493 17.9586 19.718 17.9533 19.7814 17.948C19.8501 17.9373 19.9136 17.9159 19.977 17.8839C20.0245 17.8572 20.0721 17.8306 20.1091 17.7985L20.1461 17.7612C20.1937 17.7131 20.2412 17.6598 20.273 17.6011L20.9495 16.4109C20.9812 16.3522 21.0076 16.2882 21.0235 16.2135C21.0393 16.1441 21.0446 16.0694 21.0393 15.9947C21.034 15.9253 21.0182 15.8559 20.9918 15.7919C20.9653 15.7278 20.9283 15.6638 20.8861 15.6051L19.6757 14.0894C19.5119 13.9133 19.4167 13.6785 19.4167 13.4169V10.5724C19.4167 10.3589 19.4854 10.1454 19.6281 9.96398L20.8543 8.38426C20.8966 8.33089 20.9336 8.26684 20.9601 8.19747C20.9865 8.13342 21.0023 8.06404 21.0076 7.98933C21.0129 7.91995 21.0076 7.84523 20.9918 7.77585C20.9812 7.72248 20.9601 7.66911 20.9389 7.62108L20.236 6.38826C20.2042 6.32955 20.162 6.27618 20.1144 6.22815V6.22282C20.0668 6.18012 20.0087 6.13742 19.9453 6.1054C19.8871 6.07338 19.8184 6.05203 19.7497 6.04136C19.6969 6.03069 19.6387 6.03069 19.5806 6.03602L17.5722 6.34556V6.34023C17.3607 6.37225 17.1388 6.33489 16.9432 6.22282L14.5278 4.81921C14.327 4.71247 14.1578 4.53102 14.068 4.30153L13.3492 2.42295C13.3333 2.36958 13.3069 2.32155 13.2752 2.27885L13.2382 2.23616C13.1959 2.17745 13.143 2.12942 13.0849 2.09206C13.0321 2.0547 12.9686 2.02268 12.8999 2.00133C12.8471 1.98532 12.7942 1.97465 12.7466 1.96931H11.3196C11.2562 1.96398 11.1822 1.97999 11.1135 2.00133C11.0553 2.01734 10.9972 2.04403 10.9443 2.07605L10.9232 2.09206C10.8704 2.12942 10.8175 2.17745 10.7752 2.23616H10.7699C10.7329 2.28419 10.7012 2.33222 10.6801 2.39093L10.6695 2.42295V2.42829ZM9.63359 12.0027C9.63359 12.2428 9.67059 12.4777 9.73401 12.7018L9.74987 12.7712C9.81858 12.9686 9.90842 13.1608 10.0247 13.3422C10.1568 13.5397 10.3154 13.7158 10.4951 13.8652C10.6695 14.0093 10.8756 14.1321 11.0976 14.2282L11.1346 14.2442C11.3407 14.3242 11.5574 14.3776 11.7741 14.3989C12.0014 14.4203 12.2393 14.4096 12.4771 14.3616C12.7096 14.3135 12.9316 14.2335 13.1325 14.1268C13.3333 14.02 13.5236 13.8759 13.6927 13.7051C13.8619 13.5344 13.9993 13.3422 14.1103 13.1394C14.216 12.9366 14.2952 12.7125 14.3428 12.4777C14.3904 12.2375 14.401 11.9973 14.3798 11.7678C14.3587 11.533 14.3005 11.3035 14.2107 11.0847C14.1155 10.8606 13.994 10.6578 13.8513 10.4763C13.7033 10.2949 13.5289 10.1348 13.3333 10.0013C13.1378 9.86791 12.9263 9.76651 12.7044 9.70247C12.4824 9.63843 12.2498 9.60107 12.012 9.60107C11.6949 9.60107 11.383 9.66511 11.1029 9.78252C10.8175 9.90527 10.5532 10.0814 10.3313 10.3002L10.326 10.3055C10.104 10.5297 9.92957 10.7965 9.81329 11.0847L9.79743 11.1221C9.69173 11.3943 9.63359 11.6931 9.63359 12.0027ZM7.863 13.2728C7.74144 12.8619 7.67801 12.435 7.67801 12.0027C7.67801 11.4476 7.78372 10.8979 7.98985 10.3856L8.01099 10.3322C8.22769 9.80921 8.53952 9.32889 8.94649 8.91795H8.95178C9.35875 8.507 9.83971 8.18679 10.3577 7.96798C10.8862 7.74917 11.4465 7.63175 12.0173 7.63175C12.4454 7.63175 12.8682 7.6958 13.2752 7.81855C13.6822 7.94663 14.068 8.13342 14.4274 8.37358C14.7815 8.61374 15.0986 8.90193 15.3682 9.23282C15.6377 9.56905 15.8597 9.93729 16.0236 10.3322C16.1874 10.7325 16.2878 11.1541 16.3301 11.5757C16.3724 12.008 16.3512 12.435 16.272 12.8566C16.1874 13.2782 16.0447 13.6838 15.8439 14.068C15.643 14.447 15.3893 14.7939 15.0881 15.0981L15.0828 15.1034C14.7815 15.4076 14.438 15.6638 14.0627 15.8666C13.6822 16.0694 13.2805 16.2188 12.8629 16.2989C12.4507 16.3843 12.0226 16.4003 11.5944 16.3576C11.1928 16.3202 10.7964 16.2188 10.4158 16.0694L10.363 16.048C9.97185 15.8826 9.60716 15.6584 9.27419 15.3863C8.9465 15.1141 8.6558 14.7939 8.42325 14.4363C8.20126 14.1054 8.03213 13.7425 7.91057 13.3636L7.87886 13.2728H7.863Z"
      />
    </g>
    <defs>
      <clipPath id="clip0_54_2">
        <rect width="24" height="24" fill="white" />
      </clipPath>
    </defs>
  </symbol>

  <symbol id="apple" viewBox="0 0 24 24">
    <path
      d="M17.2459 6.19301C18.2398 5.10476 18.8499 3.72086 18.9829 2.25301C19.0214 1.95033 18.9902 1.64284 18.8916 1.35408C18.793 1.06532 18.6297 0.80295 18.414 0.587049C18.1984 0.371148 17.9363 0.207442 17.6477 0.108464C17.359 0.0094849 17.0516 -0.0221426 16.7489 0.0160022C15.8384 0.087504 14.9543 0.355535 14.1574 0.801628C13.3605 1.24772 12.6698 1.86127 12.1329 2.60001C11.7929 1.74937 11.3122 0.962039 10.7109 0.271003C10.5243 0.0860312 10.2724 -0.0180701 10.0096 -0.018795C9.74687 -0.0195199 9.4944 0.0831899 9.30678 0.267129C9.11917 0.451068 9.01148 0.701456 9.007 0.964161C9.00252 1.22687 9.10162 1.48078 9.28286 1.671C10.2742 2.90543 10.8543 4.4192 10.9419 6.00001H8.49986C6.18076 6.07088 3.98422 7.05774 2.39113 8.74455C0.798036 10.4314 -0.0618024 12.6807 -0.000142817 15C-0.161143 20.6 5.64386 25.773 10.7499 23.385C11.1398 23.1371 11.5931 23.007 12.0552 23.0103C12.5173 23.0137 12.9686 23.1504 13.3549 23.404C14.0077 23.7815 14.7459 23.9866 15.4999 24C25.7639 23.716 27.0659 8.58201 17.2459 6.19301ZM14.2229 3.16801C14.9985 2.4897 15.9725 2.08004 16.9999 2V2C16.9179 3.02517 16.5088 3.99689 15.8329 4.77201C15.0565 5.44989 14.0824 5.85948 13.0549 5.94001C13.1361 4.91448 13.5457 3.94243 14.2229 3.16801V3.16801ZM15.4999 22C15.0592 21.9831 14.6305 21.8518 14.2559 21.619C13.5694 21.2226 12.7925 21.0094 11.9999 21C11.2494 21.0175 10.515 21.2212 9.86286 21.593C6.00486 23.261 1.89986 19.141 1.99986 15C1.93819 13.211 2.58733 11.4704 3.80536 10.1587C5.02339 8.84697 6.71122 8.07085 8.49986 8.00001H15.4999C24.0999 8.32101 24.0999 21.682 15.4999 22Z"
    />
  </symbol>

  <symbol id="water" viewBox="0 0 18 25">
    <path
      fill-rule="evenodd"
      clip-rule="evenodd"
      d="M9.75038 1.83891L9 2.49991L8.24962 1.83891L9 0.987061L9.75038 1.83891ZM9 4.04325C8.85741 4.21445 8.6981 4.40749 8.52523 4.61964C7.78459 5.5286 6.79922 6.78343 5.81595 8.17118C4.83011 9.56254 3.86039 11.068 3.1411 12.4804C2.40503 13.9258 2 15.144 2 15.9999C2 19.8659 5.13401 22.9999 9 22.9999C12.866 22.9999 16 19.8659 16 15.9999C16 15.144 15.595 13.9258 14.8589 12.4804C14.1396 11.068 13.1699 9.56254 12.1841 8.17118C11.2008 6.78343 10.2154 5.5286 9.47477 4.61964C9.3019 4.40749 9.14259 4.21445 9 4.04325ZM9 2.49991C8.24962 1.83891 8.24962 1.83891 8.24962 1.83891L8.24256 1.84694L8.22411 1.86801L8.15453 1.94798C8.0941 2.01769 8.00622 2.11967 7.8948 2.25054C7.67201 2.51225 7.35487 2.88981 6.97477 3.35629C6.21541 4.28822 5.20078 5.57997 4.18405 7.01493C3.16989 8.44628 2.13961 10.0397 1.3589 11.5728C0.594965 13.0729 0 14.6467 0 15.9999C0 20.9705 4.02944 24.9999 9 24.9999C13.9706 24.9999 18 20.9705 18 15.9999C18 14.6467 17.405 13.0729 16.6411 11.5728C15.8604 10.0397 14.8301 8.44628 13.8159 7.01493C12.7992 5.57997 11.7846 4.28822 11.0252 3.35629C10.6451 2.88981 10.328 2.51225 10.1052 2.25054C9.99378 2.11967 9.9059 2.01769 9.84547 1.94798L9.77589 1.86801L9.75744 1.84694L9.75106 1.83968C9.75106 1.83968 9.75038 1.83891 9 2.49991Z"
      stroke-width="2"
    />
  </symbol>

  <symbol id="workout" viewBox="0 0 24 24">
    <path
      d="M3.9 2.375C3.07157 2.375 2.4 3.03958 2.4 3.85937V15.1406C2.4 15.9604 3.07157 16.625 3.9 16.625C4.72843 16.625 5.4 15.9604 5.4 15.1406V3.85937C5.4 3.03958 4.72843 2.375 3.9 2.375ZM0 3.85937C0 1.7279 1.74609 0 3.9 0C6.05391 0 7.8 1.7279 7.8 3.85937V8.3125H16.2V3.85937C16.2 1.7279 17.9461 0 20.1 0C22.2539 0 24 1.7279 24 3.85937V15.1406C24 17.2721 22.2539 19 20.1 19C17.9461 19 16.2 17.2721 16.2 15.1406V10.6875H7.8V15.1406C7.8 17.2721 6.05391 19 3.9 19C1.74609 19 0 17.2721 0 15.1406V3.85937ZM20.1 2.375C19.2716 2.375 18.6 3.03958 18.6 3.85937V15.1406C18.6 15.9604 19.2716 16.625 20.1 16.625C20.9284 16.625 21.6 15.9604 21.6 15.1406V3.85937C21.6 3.03958 20.9284 2.375 20.1 2.375Z"
    />
  </symbol>

  <symbol id="rules" width="24" height="24" viewBox="0 0 24 24">
    <g clip-path="url(#clip0_54_8)">
      <path
        fill-rule="evenodd"
        clip-rule="evenodd"
        d="M0 12C0 5.37305 5.37305 0 12 0C18.6269 0 24 5.37305 24 12C24 18.6269 18.6269 24 12 24C5.37305 24 0 18.6269 0 12ZM12 1.97955C6.46687 1.97955 1.97955 6.46687 1.97955 12C1.97955 17.5331 6.46687 22.0205 12 22.0205C17.5331 22.0205 22.0205 17.5331 22.0205 12C22.0205 6.46687 17.5331 1.97955 12 1.97955Z"
      />
      <path
        d="M10.1432 9.14329C10.1432 9.69414 9.69494 10.1424 9.1441 10.1424C8.59326 10.1424 8.14502 9.69414 8.14502 9.14329C8.14502 8.75446 8.20442 8.36563 8.32323 7.9822C8.43664 7.60417 8.60406 7.24774 8.82547 6.91832C9.04689 6.58349 9.31691 6.29187 9.61394 6.04885L9.68954 5.99484C9.97577 5.76802 10.289 5.58441 10.6238 5.4494L10.6832 5.4278C11.0288 5.29279 11.3961 5.20098 11.7633 5.16318C12.1575 5.12537 12.5518 5.14157 12.9298 5.21718C13.3132 5.29279 13.6859 5.4278 14.0369 5.61681C14.3879 5.80583 14.7119 6.03804 14.982 6.31347L15.0414 6.37827C15.2952 6.64289 15.5058 6.93992 15.6786 7.25854C15.8622 7.60417 15.9972 7.9768 16.0783 8.36023C16.1539 8.74366 16.1701 9.13789 16.1323 9.53212C16.0945 9.92635 15.9972 10.3098 15.846 10.6716L15.819 10.7256C15.6732 11.0712 15.4734 11.3899 15.2412 11.6761C14.9928 11.9785 14.7011 12.2431 14.3717 12.4646C14.0369 12.686 13.6805 12.8588 13.3078 12.9722L13.1458 13.0154V14.1441C13.1458 14.6949 12.6976 15.1432 12.1467 15.1432C11.5959 15.1432 11.1477 14.6949 11.1477 14.1441V12.1459C11.1477 11.5951 11.5959 11.1469 12.1467 11.1469C12.3304 11.1469 12.5032 11.1253 12.6652 11.082L12.73 11.0604C12.9244 11.001 13.1026 10.92 13.2592 10.812C13.4266 10.6986 13.5725 10.569 13.6967 10.4178C13.8101 10.2774 13.9073 10.1208 13.9829 9.95336L13.9991 9.91015C14.0747 9.72654 14.1233 9.53212 14.1449 9.34311C14.1611 9.15409 14.1503 8.95428 14.1125 8.75446V8.74906C14.0747 8.55465 14.0045 8.36563 13.9181 8.19822C13.8371 8.04701 13.7345 7.90119 13.6103 7.77158L13.5617 7.72838C13.4158 7.58257 13.2592 7.46376 13.0918 7.37735C12.9244 7.28554 12.7354 7.22074 12.541 7.18294C12.3412 7.14513 12.1413 7.13433 11.9469 7.15053C11.7687 7.16673 11.5851 7.20994 11.4123 7.28014L11.3745 7.29635C11.2071 7.36655 11.0559 7.45296 10.9154 7.55557L10.8668 7.59877C10.7102 7.72838 10.5752 7.87419 10.4726 8.0308C10.3592 8.19822 10.2782 8.37643 10.2188 8.56005C10.1648 8.73826 10.1378 8.93268 10.1378 9.14329H10.1432Z"
      />
      <path
        d="M12.1465 19.0586C12.9398 19.0586 13.583 18.4154 13.583 17.6221C13.583 16.8287 12.9398 16.1855 12.1465 16.1855C11.3531 16.1855 10.71 16.8287 10.71 17.6221C10.71 18.4154 11.3531 19.0586 12.1465 19.0586Z"
      />
    </g>
    <defs>
      <clipPath id="clip0_54_8">
        <rect width="24" height="24" fill="white" />
      </clipPath>
    </defs>
  </symbol>

  <symbol id="ask" width="20" height="20" viewBox="0 0 20 20" fill="none">
    <g clip-path="url(#clip0_1_38)">
      <path
        d="M9.99746 0.788332C8.3312 0.78885 6.6963 1.24131 5.26688 2.09753C3.83745 2.95374 2.66703 4.18164 1.88028 5.65044C1.09352 7.11924 0.719893 8.77394 0.799194 10.4383C0.878496 12.1027 1.40775 13.7143 2.3306 15.1016L0.785889 19.2115L5.95853 18.2761C7.20409 18.8848 8.57098 19.2045 9.95728 19.2114C11.3436 19.2182 12.7135 18.9121 13.9651 18.3158C15.2165 17.7195 16.3174 16.8484 17.1854 15.7675C18.0534 14.6865 18.6662 13.4236 18.9782 12.0728C19.2901 10.722 19.2932 9.31827 18.9871 7.96616C18.6811 6.61406 18.0738 5.34846 17.2105 4.26373C16.3472 3.179 15.2502 2.30312 14.0013 1.70137C12.7524 1.09961 11.3838 0.787513 9.99746 0.788332Z"
        stroke="white"
        stroke-width="1.5"
        stroke-linecap="round"
        stroke-linejoin="round"
      />
      <path
        d="M7.87183 7.87404C7.87183 7.45361 7.9965 7.04261 8.23008 6.69304C8.46365 6.34346 8.79565 6.071 9.18408 5.91011C9.57251 5.74921 9.99993 5.70711 10.4123 5.78914C10.8246 5.87116 11.2034 6.07361 11.5007 6.37091C11.798 6.6682 12.0005 7.04697 12.0825 7.45933C12.1645 7.87168 12.1224 8.2991 11.9615 8.68753C11.8006 9.07596 11.5282 9.40796 11.1786 9.64153C10.829 9.87511 10.418 9.99978 9.99757 9.99978V11.417"
        stroke="white"
        stroke-width="1.5"
        stroke-linecap="round"
        stroke-linejoin="round"
      />
      <path
        d="M10.0003 14.9601C9.80461 14.9601 9.646 14.8014 9.646 14.6058C9.646 14.4101 9.80461 14.2515 10.0003 14.2515"
        stroke="white"
        stroke-width="1.5"
        stroke-linecap="round"
        stroke-linejoin="round"
      />
      <path
        d="M10 14.9603C10.1957 14.9603 10.3543 14.8017 10.3543 14.606C10.3543 14.4103 10.1957 14.2517 10 14.2517"
        stroke="white"
        stroke-width="1.5"
        stroke-linecap="round"
        stroke-linejoin="round"
      />
    </g>
    <defs>
      <clipPath id="clip0_1_38">
        <rect width="20" height="20" fill="white" />
      </clipPath>
    </defs>
  </symbol>

  <symbol id="table" width="25" height="24" viewBox="0 0 25 24" fill="none">
    <g clip-path="url(#clip0_1_352)">
      <path
        d="M3.125 6.60559H23.125"
        stroke-width="2"
        stroke-linecap="round"
        stroke-linejoin="round"
      />
      <path
        d="M21.5865 2H4.66346C3.81379 2 3.125 2.68879 3.125 3.53846V20.4615C3.125 21.3112 3.81379 22 4.66346 22H21.5865C22.4362 22 23.125 21.3112 23.125 20.4615V3.53846C23.125 2.68879 22.4362 2 21.5865 2Z"
        stroke-width="2"
        stroke-linecap="round"
        stroke-linejoin="round"
      />
    </g>
    <defs>
      <clipPath id="clip0_1_352">
        <rect
          width="24"
          height="24"
          fill="white"
          transform="translate(0.625)"
        />
      </clipPath>
    </defs>
  </symbol>

  <symbol id="home" width="25" height="24" viewBox="0 0 25 24" fill="none">
    <g clip-path="url(#clip0_1_358)">
      <path
        d="M1.73218 13.7143L12.875 2.57141L24.0179 13.7143"
        stroke-width="2"
        stroke-linecap="round"
        stroke-linejoin="round"
      />
      <path
        d="M5.16064 10.2856V21.4285H20.5892V10.2856"
        stroke-width="2"
        stroke-linecap="round"
        stroke-linejoin="round"
      />
    </g>
    <defs>
      <clipPath id="clip0_1_358">
        <rect
          width="24"
          height="24"
          fill="white"
          transform="translate(0.875)"
        />
      </clipPath>
    </defs>
  </symbol>

  <symbol id="user" width="25" height="24" viewBox="0 0 25 24" fill="none">
    <g clip-path="url(#clip0_1_364)">
      <path
        d="M12.1251 13.7143C14.492 13.7143 16.4108 11.7955 16.4108 9.42854C16.4108 7.0616 14.492 5.14282 12.1251 5.14282C9.75814 5.14282 7.83936 7.0616 7.83936 9.42854C7.83936 11.7955 9.75814 13.7143 12.1251 13.7143Z"
        stroke-width="2"
        stroke-linecap="round"
        stroke-linejoin="round"
      />
      <path
        d="M4.80493 20.4C5.56991 19.1442 6.64506 18.1064 7.92701 17.3864C9.20895 16.6662 10.6546 16.288 12.1249 16.288C13.5953 16.288 15.0409 16.6662 16.3229 17.3864C17.6049 18.1064 18.6799 19.1442 19.445 20.4"
        stroke-width="2"
        stroke-linecap="round"
        stroke-linejoin="round"
      />
      <path
        d="M12.125 23.1428C18.2791 23.1428 23.2679 18.1541 23.2679 12C23.2679 5.84595 18.2791 0.857117 12.125 0.857117C5.97101 0.857117 0.982178 5.84595 0.982178 12C0.982178 18.1541 5.97101 23.1428 12.125 23.1428Z"
        stroke-width="2"
        stroke-linecap="round"
        stroke-linejoin="round"
      />
    </g>
    <defs>
      <clipPath id="clip0_1_364">
        <rect
          width="24"
          height="24"
          fill="white"
          transform="translate(0.125)"
        />
      </clipPath>
    </defs>
  </symbol>

  <symbol id="partners" width="25" height="24" viewBox="0 0 25 24" fill="none">
    <g clip-path="url(#clip0_1_371)">
      <path
        d="M18.2688 13.7141C16.7444 13.7141 15.5087 12.4783 15.5087 10.954C15.5087 9.42959 16.7444 8.19385 18.2688 8.19385C19.7931 8.19385 21.0289 9.42959 21.0289 10.954C21.0289 12.4783 19.7931 13.7141 18.2688 13.7141Z"
        stroke-width="2"
        stroke-linecap="round"
        stroke-linejoin="round"
      />
      <path
        d="M14.2588 17.9745C14.639 17.5726 15.079 17.2286 15.5651 16.9554C16.3907 16.4916 17.3218 16.248 18.2687 16.248C19.2157 16.248 20.1467 16.4916 20.9723 16.9554C21.3294 17.1561 21.6617 17.3949 21.9635 17.6669"
        stroke-width="2"
        stroke-linecap="round"
        stroke-linejoin="round"
      />
      <path
        d="M9.33889 12.8284C7.44992 12.8284 5.91858 11.2971 5.91858 9.4081C5.91858 7.51911 7.44992 5.98779 9.33889 5.98779C11.2279 5.98779 12.7592 7.51911 12.7592 9.4081C12.7592 11.2971 11.2279 12.8284 9.33889 12.8284Z"
        stroke-width="2"
        stroke-linecap="round"
        stroke-linejoin="round"
      />
      <path
        d="M15.7463 22.5962C15.5757 20.5533 15.0667 19.21 14.7876 18.737C14.1934 17.7268 13.3582 16.8917 12.3625 16.3123C11.3667 15.7329 10.2438 15.4286 9.10172 15.4286C7.95961 15.4286 6.83672 15.7329 5.84096 16.3123C5.04586 16.775 4.35316 17.4005 3.80375 18.1483L3.45544 18.6696"
        stroke-width="2"
        stroke-linecap="round"
        stroke-linejoin="round"
      />
      <path
        d="M12.375 23.1428C6.22101 23.1428 1.23218 18.1541 1.23218 12C1.23218 5.84595 6.22101 0.857117 12.375 0.857117C18.5291 0.857117 23.5179 5.84595 23.5179 12C23.5179 18.1541 18.5291 23.1428 12.375 23.1428Z"
        stroke-width="2"
        stroke-linecap="round"
        stroke-linejoin="round"
      />
    </g>
    <defs>
      <clipPath id="clip0_1_371">
        <rect
          width="24"
          height="24"
          fill="white"
          transform="translate(0.375)"
        />
      </clipPath>
    </defs>
  </symbol>

  <symbol id="icon-heart" viewBox="0 0 20 20">
    <path
      d="M10.006 17.6895L2.18543 10.6057C-2.06487 6.35541 4.18306 -1.80515 10.006 4.79696C15.8288 -1.80515 22.0485 6.38375 17.8265 10.6057L10.006 17.6895Z"
      stroke-width="1.5"
      stroke-linecap="round"
      stroke-linejoin="round"
    />
  </symbol>

  <symbol id="info" viewBox="0 0 20 20">
<circle cx="9.99992" cy="10" r="9.16667"  stroke-width="1.5"/>
<path d="M10 5.83337V10"  stroke-width="1.5" stroke-linecap="round" stroke-linejoin="round"/>
<path d="M10 13.3334V13.75" stroke-width="1.5" stroke-linecap="round" stroke-linejoin="round"/>
  </symbol>

  <symbol id="corb" viewBox="0 0 24 24">
  <g clip-path="url(#clip0_44_255)">
<path d="M18.7646 23.1429C18.2913 23.1429 17.9075 22.759 17.9075 22.2857C17.9075 21.8124 18.2913 21.4286 18.7646 21.4286C19.2381 21.4286 19.6218 21.8124 19.6218 22.2857C19.6218 22.759 19.2381 23.1429 18.7646 23.1429Z" stroke-width="1.5" stroke-linecap="round" stroke-linejoin="round"/>
<path d="M7.62179 23.1429C7.14841 23.1429 6.76465 22.759 6.76465 22.2857C6.76465 21.8124 7.14841 21.4286 7.62179 21.4286C8.09519 21.4286 8.47893 21.8124 8.47893 22.2857C8.47893 22.759 8.09519 23.1429 7.62179 23.1429Z" stroke="white" stroke-width="1.5" stroke-linecap="round" stroke-linejoin="round"/>
<path d="M16.4649 11.1429H11.322" stroke-width="1.5" stroke-linecap="round" stroke-linejoin="round"/>
<path d="M13.8936 8.57141V13.7143" stroke-width="1.5" stroke-linecap="round" stroke-linejoin="round"/>
<path d="M0.857178 0.857178H5.14289L5.59402 5.14289M5.59402 5.14289L6.69562 15.6081C6.78746 16.4805 7.52318 17.1429 8.40048 17.1429H19.2329C20.0196 17.1429 20.7053 16.6075 20.8961 15.8444L23.039 7.27296C23.3095 6.19099 22.4911 5.14289 21.3758 5.14289H5.59402Z" stroke-width="1.5" stroke-linecap="round" stroke-linejoin="round"/>
</g>
<defs>
<clipPath id="clip0_44_255">
<rect width="24" height="24" fill="white"/>
</clipPath>
</defs>

  </symbol>

  <symbol id="minus" viewBox="0 0 24 24">
    <path d="M3 12L21 12" stroke="#BD2B98" stroke-width="2" stroke-linecap="round" stroke-linejoin="round"/>
  </symbol>

  <symbol id="plus" viewBox="0 0 24 24">
  <path d="M12 3V21" stroke="#BD2B98" stroke-width="2" stroke-linecap="round" stroke-linejoin="round"/>
<path d="M3 12L21 12" stroke="#BD2B98" stroke-width="2" stroke-linecap="round" stroke-linejoin="round"/>
  </symbol>

  <symbol id="copy" viewBox="0 0 20 20">
<path d="M11.6666 3.74992V3.74992C11.6666 2.13909 10.3608 0.833252 8.74996 0.833252H4.66663C3.00977 0.833252 1.66663 2.1764 1.66663 3.83325V9.64278C1.66663 11.2207 2.94581 12.4999 4.52377 12.4999V12.4999" stroke="#BD2B98" stroke-width="1.5" stroke-linecap="round"/>
<rect x="8.33337" y="7.5" width="10" height="11.6667" rx="3" stroke="#BD2B98" stroke-width="1.5"/>
  </symbol>

  <symbol id="photo" viewBox="0 0 66 66">
  <mask id="mask0_62_280" style="mask-type:luminance" maskUnits="userSpaceOnUse" x="0" y="0" width="66" height="66">
<path d="M0 7.62939e-06H66V66H0V7.62939e-06Z" fill="white"/>
</mask>
<g mask="url(#mask0_62_280)">
<path d="M33 35.5781C27.3139 35.5781 22.6875 30.9517 22.6875 25.2656C22.6875 19.5796 27.3139 14.9531 33 14.9531C38.6861 14.9531 43.3125 19.5796 43.3125 25.2656C43.3125 30.9517 38.6861 35.5781 33 35.5781Z" stroke="#BD2B98" stroke-width="1.5" stroke-miterlimit="10" stroke-linecap="round" stroke-linejoin="round"/>
<path d="M13.7479 58.2617C13.7492 58.245 13.7505 58.2282 13.7531 58.2114C14.6877 48.4043 22.9478 40.7343 33.0001 40.7343C43.0522 40.7343 51.3111 48.403 52.2484 58.2102" stroke="#BD2B98" stroke-width="1.5" stroke-miterlimit="10" stroke-linecap="round" stroke-linejoin="round"/>
<path d="M58.0078 11.8594C58.0078 12.5713 57.4306 13.1484 56.7187 13.1484C56.0069 13.1484 55.4297 12.5713 55.4297 11.8594C55.4297 11.1474 56.0069 10.5703 56.7187 10.5703C57.4306 10.5703 58.0078 11.1474 58.0078 11.8594Z" fill="#BD2B98"/>
<path d="M60.1246 16.5526C63.0354 21.3465 64.7109 26.9756 64.7109 33C64.7109 43.2854 59.8267 52.4197 52.2483 58.2102V58.2115C46.9128 62.2901 40.242 64.7109 33 64.7109C25.7593 64.7109 19.0884 62.2901 13.7531 58.2115C6.17461 52.421 1.28906 43.2867 1.28906 33C1.28906 15.4739 15.4713 1.28906 33 1.28906C40.331 1.28906 47.0775 3.77051 52.4456 7.94037" stroke="#BD2B98" stroke-width="1.5" stroke-miterlimit="10" stroke-linecap="round" stroke-linejoin="round"/>
</g>

  </symbol>

</svg>
